<?xml version="1.0" encoding="UTF-8"?><svg id="Warstwa_1" xmlns="http://www.w3.org/2000/svg" viewBox="0 0 2812.52 960.08"><defs><style>.cls-1{font-family:MyriadPro-Regular, 'Myriad Pro';font-size:638.89px;}.cls-1,.cls-2,.cls-3{fill:#fff;}.cls-1,.cls-4,.cls-3{stroke:#fff;stroke-miterlimit:10;}.cls-4{fill:none;stroke-width:53px;}</style></defs><text class="cls-1" transform="translate(.5 695.3)"><tspan x="0" y="0">MM</tspan></text><line class="cls-4" x1="64" y1="194" x2="64"/><line class="cls-4" x1="970.5" y1="194" x2="970.5"/><g><line class="cls-4" x1="997" y1="26.5" x2="37.5" y2="26.5"/><line class="cls-2" x1="997" y1="26.5" x2="37.5" y2="26.5"/></g><line class="cls-4" x1="63.62" y1="957.05" x2="63.62" y2="769.44"/><line class="cls-4" x1="970.5" y1="960" x2="970.5" y2="769"/><g><line class="cls-4" x1="997.62" y1="933.58" x2="38.12" y2="933.58"/><line class="cls-2" x1="997.62" y1="933.58" x2="38.12" y2="933.58"/></g><g><path class="cls-3" d="M1501.5,266.25c-1.71-32.15-3.76-70.79-3.42-99.52h-1.03c-7.87,27.02-17.44,55.75-29.07,87.55l-40.7,111.83h-22.57l-37.28-109.78c-10.94-32.49-20.18-62.24-26.68-89.6h-.68c-.68,28.73-2.39,67.37-4.45,101.91l-6.16,98.84h-28.39l16.07-230.5h37.96l39.33,111.49c9.58,28.39,17.44,53.69,23.26,77.63h1.03c5.81-23.26,14.02-48.56,24.28-77.63l41.04-111.49h37.96l14.36,230.5h-29.07l-5.81-101.23Z"/><path class="cls-3" d="M1616.06,294.98l-23.94,72.5h-30.78l78.32-230.5h35.91l78.66,230.5h-31.81l-24.62-72.5h-81.74Zm75.58-23.26l-22.57-66.35c-5.13-15.05-8.55-28.73-11.97-42.07h-.68c-3.42,13.68-7.18,27.7-11.63,41.72l-22.57,66.69h69.42Z"/><path class="cls-3" d="M1805.53,162.29h-70.11v-25.31h170.66v25.31h-70.45v205.2h-30.1V162.29Z"/><path class="cls-3" d="M2051.09,259.41h-89.6v83.1h99.86v24.97h-129.62V136.98h124.49v24.97h-94.73v72.84h89.6v24.62Z"/><path class="cls-3" d="M2129.74,136.98v136.46c0,51.64,22.91,73.53,53.69,73.53,34.2,0,56.09-22.57,56.09-73.53V136.98h30.1v134.4c0,70.79-37.28,99.86-87.21,99.86-47.2,0-82.76-27.02-82.76-98.49V136.98h30.1Z"/><path class="cls-3" d="M2317.16,331.23c13.34,8.21,32.83,15.05,53.35,15.05,30.44,0,48.22-16.07,48.22-39.33,0-21.55-12.31-33.86-43.43-45.83-37.62-13.34-60.88-32.83-60.88-65.32,0-35.91,29.75-62.58,74.56-62.58,23.6,0,40.7,5.47,50.96,11.29l-8.21,24.28c-7.52-4.1-22.91-10.94-43.78-10.94-31.46,0-43.43,18.81-43.43,34.54,0,21.55,14.02,32.15,45.83,44.46,38.99,15.05,58.82,33.86,58.82,67.71,0,35.57-26.33,66.35-80.71,66.35-22.23,0-46.51-6.5-58.82-14.71l7.52-24.97Z"/><path class="cls-3" d="M2474.13,350.04l127.91-187.07v-1.03h-116.96v-24.97h155.61v18.13l-127.22,186.39v1.03h128.93v24.97h-168.26v-17.44Z"/><path class="cls-3" d="M1501.5,714.25c-1.71-32.15-3.76-70.79-3.42-99.52h-1.03c-7.87,27.02-17.44,55.75-29.07,87.55l-40.7,111.83h-22.57l-37.28-109.78c-10.94-32.49-20.18-62.24-26.68-89.6h-.68c-.68,28.73-2.39,67.37-4.45,101.91l-6.16,98.84h-28.39l16.07-230.5h37.96l39.33,111.49c9.58,28.39,17.44,53.69,23.26,77.63h1.03c5.81-23.25,14.02-48.56,24.28-77.63l41.04-111.49h37.96l14.36,230.5h-29.07l-5.81-101.23Z"/><path class="cls-3" d="M1701.56,707.41h-89.6v83.1h99.86v24.97h-129.62v-230.5h124.49v24.97h-94.73v72.84h89.6v24.62Z"/><path class="cls-3" d="M1750.46,584.98h29.75v205.54h98.5v24.97h-128.25v-230.5Z"/><path class="cls-3" d="M1949.16,742.98l-23.94,72.5h-30.78l78.32-230.5h35.91l78.66,230.5h-31.81l-24.62-72.5h-81.74Zm75.58-23.26l-22.57-66.35c-5.13-15.05-8.55-28.73-11.97-42.07h-.68c-3.42,13.68-7.18,27.7-11.63,41.72l-22.57,66.69h69.42Z"/><path class="cls-3" d="M2121.19,815.48v-230.5h32.49l73.87,116.62c17.1,27.02,30.44,51.3,41.38,74.9l.68-.34c-2.74-30.78-3.42-58.82-3.42-94.73v-96.44h28.04v230.5h-30.1l-73.19-116.96c-16.07-25.65-31.46-51.98-43.09-76.95l-1.03,.34c1.71,29.07,2.39,56.77,2.39,95.08v98.49h-28.04Z"/><path class="cls-3" d="M2375.97,584.98v230.5h-29.75v-230.5h29.75Z"/><path class="cls-3" d="M2457.71,584.98v136.46c0,51.64,22.91,73.53,53.69,73.53,34.2,0,56.09-22.57,56.09-73.53v-136.46h30.1v134.4c0,70.79-37.28,99.86-87.21,99.86-47.2,0-82.76-27.02-82.76-98.49v-135.77h30.1Z"/><path class="cls-3" d="M2649.23,584.98h29.75v111.15h1.03c6.16-8.89,12.31-17.1,18.12-24.62l70.45-86.52h36.94l-83.45,97.81,89.94,132.69h-35.23l-75.92-113.2-21.89,25.31v87.89h-29.75v-230.5Z"/></g></svg>