<?xml version="1.0" encoding="UTF-8"?><svg id="Warstwa_1" xmlns="http://www.w3.org/2000/svg" viewBox="0 0 411.84 396.42"><defs><style>.cls-1{fill:#70b62c;}.cls-2{fill:#683c11;}.cls-3{fill:#754595;}.cls-4{fill:#706f6f;}.cls-5{fill:#878787;}.cls-6{fill:#fddaac;}.cls-7{fill:#1d1d1b;}</style></defs><circle class="cls-3" cx="181.48" cy="209.99" r="181.48"/><g><path class="cls-7" d="M411.15,284.01c.87,2.65,.32,5.68-.61,8.23-1.16,3.18-2.93,6.09-4.55,9.03-1.78,3.21-3.55,6.42-5.32,9.63-3.55,6.42-7.09,12.84-10.63,19.26-7.17,12.98-14.34,25.97-21.51,38.95-1.78,3.21-3.55,6.42-5.32,9.63-1.69,3.06-3.22,6.33-5.2,9.23-2.01,2.96-4.71,4.55-8.3,4.79-3.42,.23-6.95-.19-10.38-.35-8.66-.38-17.32-.77-25.98-1.15,.31-1.41-.47-3.13-2.34-3.18l.09-1.92c11.74,.52,23.47,1.05,35.2,1.56,2.74,.12,5.43,.36,7.24-2.04,.97-1.29,1.68-2.81,2.45-4.21,.81-1.46,1.61-2.92,2.42-4.38,3.46-6.27,6.93-12.55,10.39-18.82,7.01-12.69,14.02-25.38,21.03-38.07,3.46-6.28,6.92-12.55,10.39-18.82,1.64-2.97,3.43-5.9,4.87-8.97,.92-1.94,1.88-4.44,1.37-6.6-.51-2.2-2.7-2.9-4.75-3.04-3.09-.2-6.24,.08-9.33,.15-6.59,.16-13.19,.24-19.78,.28-13.55,.1-27.11,.03-40.66,.06-26.95,.07-53.97,.42-80.8,3.29-.38,.04-.74-.04-1.06-.21-.84-.42-1.44-1.4-1.44-2.29,0-1.46,1.16-2.36,2.5-2.5,3.31-.36,6.63-.67,9.94-.95,22.93-1.93,45.95-2.27,68.94-2.33,4.82-.01,9.63-.01,14.45-.01,13.76,0,27.52,.02,41.28-.21,3.42-.05,6.84-.13,10.26-.22,2.95-.08,6.04-.37,8.92,.43,2.92,.81,5.27,2.85,6.22,5.75Z"/><path class="cls-5" d="M406.46,285.81c.51,2.16-.45,4.66-1.37,6.6-1.44,3.07-3.23,6-4.87,8.97-3.47,6.27-6.93,12.54-10.39,18.82-7.01,12.69-14.02,25.38-21.03,38.07-3.46,6.27-6.93,12.55-10.39,18.82-.81,1.46-1.61,2.92-2.42,4.38-.77,1.4-1.48,2.92-2.45,4.21-1.81,2.4-4.5,2.16-7.24,2.04-11.73-.51-23.46-1.04-35.2-1.56-2.7-.12-5.41-.24-8.11-.36-28.71-1.27-57.42-2.54-86.13-3.82-2.34-.1-4.69-.21-7.03-.31,4.06-12.09,7.55-24.35,11.57-36.45,4.15-12.52,8.96-24.86,15.71-36.23,3.93-6.64,8.48-12.86,13.64-18.59,1.28-1.42,.55-3.25-.7-3.99l.03-.07c.32,.17,.68,.25,1.06,.21,26.83-2.87,53.85-3.22,80.8-3.29,13.55-.03,27.11,.04,40.66-.06,6.59-.04,13.19-.12,19.78-.28,3.09-.07,6.24-.35,9.33-.15,2.05,.14,4.24,.84,4.75,3.04Z"/><path class="cls-7" d="M332.28,273.69c1.22,1.89-.51,3.68-2.26,3.68-.77,0-1.53-.34-2.06-1.16-4.71-7.32-7.61-15.59-10.95-23.58-2.77-6.61-5.96-13.33-11-18.53-5.65-5.84-13.2-8.74-21.04-10.3-9-1.8-18.33-2.3-27.47-2.99-10.32-.78-20.68-1.22-31.02-.62-1.03,.06-1.72-.41-2.1-1.08-.78-1.43-.08-3.79,2.1-3.92,11.92-.69,23.85,0,35.73,1,17.12,1.44,36.98,2.01,48.99,16.19,10.17,12.02,12.68,28.24,21.08,41.31Z"/><path class="cls-1" d="M330.02,277.37v.9c-22.99,.06-46.01,.4-68.94,2.33-3.31,.28-6.63,.59-9.94,.95-1.34,.14-2.5,1.04-2.5,2.5,0,.89,.6,1.87,1.44,2.29l-.03,.07c-.86-.51-1.96-.52-2.83,.45-9.33,10.35-16.65,22.21-22.26,34.93-2.83,6.41-5.28,12.98-7.53,19.61l-1.42-.48c.32-1.18-.41-2.88-1.75-3.08-20.36-3.04-41-4.07-61.56-2.94-10.26,.57-20.5,1.66-30.66,3.26-9.16,1.44-18.35,3.18-27.31,5.65,.49-.42,.8-1.04,.83-1.81,.03-.8,.06-1.61,.09-2.41,.55-15.81,.25-31.65-.93-47.42-.36-4.76-.79-9.52-1.3-14.26-.23-2.14-2.57-3.32-4.27-1.77-1.87,1.7-2.63,4.47-1.76,6.87,.3,.82,.92,1.46,1.7,1.71,1.31,14.28,1.93,28.62,1.82,42.96-.03,4.02-.12,8.02-.27,12.03-8.75,.74-17.52,1.27-26.3,1.57-4.71,.16-9.43,.3-14.14,.29-3.74,0-7.54-.17-11.1-1.43-7.17-2.55-9.23-10.18-10.35-16.94-1.51-9.12-2.2-18.39-2.22-27.63-.02-9.22,.66-18.46,2.1-27.56,1.3-8.25,2.8-16.97,6.73-24.43,3.59-6.82,9.33-11.51,16.29-14.65,7.21-3.25,15.18-4.79,22.93-6.14,18.53-3.23,37.46-4.15,56.22-2.86,2.33,.16,4.66,.36,6.99,.59,.62,.06,1.21-.2,1.65-.62l.32,.08c-.48,.4-.82,1.01-.86,1.81-.31,6.96,5.98,13.83,11.87,16.59,6.42,3.01,13.49,4.71,20.5,5.61,7.03,.91,14.12,.79,21.13-.24,6.08-.89,12.11-2.49,17.58-5.33,5.85-3.03,11.45-11.3,13.96-17.46,.25-.61,.13-1.27-.2-1.83l.64-.02c.38,.67,1.07,1.14,2.1,1.08,10.34-.6,20.7-.16,31.02,.62,9.14,.69,18.47,1.19,27.47,2.99,7.84,1.56,15.39,4.46,21.04,10.3,5.04,5.2,8.23,11.92,11,18.53,3.34,7.99,6.24,16.26,10.95,23.58,.53,.82,1.29,1.16,2.06,1.16Z"/><path class="cls-7" d="M311.01,388.08c1.87,.05,2.65,1.77,2.34,3.18-6.1-.27-12.21-.54-18.32-.81-22.99-1.02-45.98-2.04-68.97-3.06,4.27-.06,8.55-.1,12.82-.13,24.05-.16,48.09,.12,72.13,.82Z"/><path class="cls-7" d="M295.03,390.45c6.11,.27,12.22,.54,18.32,.81-.21,1.01-1,1.86-2.34,1.82-13.51-.4-27.02-.66-40.54-.78-23.96-.22-47.92-.01-71.88,.64-24.03,.64-48.05,1.72-72.05,3.22-.9,.06-1.69-.52-2.16-1.24-3.26-4.94-5.79-12.55-1.45-16.05,.43-.34,.88-.66,1.34-.95,4.49-2.78,10.54-2.96,15.66-3.35,6.61-.52,17.27-.6,23.88-1.11,13.39-1.03,26.77-2.05,40.16-3.08,1.35-.11,2.5,1.23,2.5,2.5,0,.18-.02,.35-.05,.51-.24,1.14-1.27,1.9-2.45,1.99-6.94,.53-13.88,1.06-20.82,1.6-12.31,.94-29.44,1.06-41.75,2.01-4.95,.38-10.45,.43-14.72,3.29-2.53,1.69-.69,5.73,1.18,8.8-.44,.03-.88,.05-1.32,.08,.72,.42,1.44,.83,2.16,1.24-.27-.41-.56-.86-.84-1.32,13.05-.81,26.1-1.5,39.16-2.05,19.67-.84,39.35-1.39,59.04-1.64,22.99,1.02,45.98,2.04,68.97,3.06Z"/><path class="cls-7" d="M311.1,386.16l-.09,1.92c-24.04-.7-48.08-.98-72.13-.82-4.27,.03-8.55,.07-12.82,.13-5.78-.25-11.55-.51-17.33-.77l.09-1.94c.34-1,.68-2,1.01-3.01,2.34,.1,4.69,.21,7.03,.31,28.71,1.28,57.42,2.55,86.13,3.82,2.7,.12,5.41,.24,8.11,.36Z"/><path class="cls-7" d="M295.87,25.24c1.24,3.8,.77,7.97-.73,11.62-3.23,7.88-9.96,13.52-16.96,18-7.18,4.61-15,8.24-23.12,10.86-3.29,1.06-6.62,1.96-10,2.67-1-.43-2.17-.12-2.92,.58-12.38,2.26-25.16,2.21-37.52-.21-1.33-.26-2.09-1.85-1.75-3.07,.12-.44,.34-.8,.63-1.09,.62-.6,1.55-.84,2.45-.66,3.76,.74,7.56,1.24,11.4,1.5,15.95,1.07,32.21-1.86,46.74-8.56,7.04-3.25,14.28-7.25,19.88-12.7,4.65-4.52,9.71-11.66,6.78-18.43-1.5-3.44-4.71-5.84-7.77-7.82-3.29-2.11-6.8-3.87-10.46-5.25-7.6-2.87-15.67-4.36-23.73-5.21-8.57-.9-17.2-1.2-25.81-1.55-9.52-.4-19.04-.69-28.57-.68-18.74,.01-37.61,1.1-55.99,4.96-15.94,3.35-32.14,9.11-44.25,20.4-10.83,10.11-18.74,25-16.71,40.18,.92,6.87,4.46,12.91,10.23,16.72,5.23,3.46,11.49,5.19,17.66,5.88,6.94,.78,13.92,.38,20.82-.58,8.32-1.16,16.54-3.02,24.55-5.54,16.04-5.03,36.83-17.77,50.35-27.76,1.09-.81,2.8-.18,3.42,.89,.74,1.26,.19,2.62-.89,3.42-.22,.16-.46,.34-.72,.53-3.88,2.94-12.2,9.6-15.64,11.72-15.02,9.25-31.68,15.95-48.93,19.65-10.88,2.33-22.71,4.07-33.99,2.64-3.86-.49-7.66-1.35-11.33-2.69-6.45-2.35-12.28-6.23-16.1-12.04-4.83-7.33-5.44-16.65-4.04-25.1,2.68-16.17,13.77-29.98,27.2-38.8,15.12-9.93,33.24-14.27,50.94-16.74C170.79,.22,190.81-.08,210.77,.48c9.52,.27,19.04,.64,28.54,1.22,8.67,.54,17.4,1.41,25.86,3.49,8.13,2,16.26,5.2,22.99,10.27,3.41,2.56,6.36,5.65,7.71,9.78Z"/><path class="cls-2" d="M290.75,25.75c2.93,6.77-2.13,13.91-6.78,18.43-5.6,5.45-12.84,9.45-19.88,12.7-14.53,6.7-30.79,9.63-46.74,8.56-3.84-.26-7.64-.76-11.4-1.5-.9-.18-1.83,.06-2.45,.66l-.62-.26c.26-.19,.5-.37,.72-.53,1.08-.8,1.63-2.16,.89-3.42-.62-1.07-2.33-1.7-3.42-.89-13.52,9.99-34.31,22.73-50.35,27.76-8.01,2.52-16.23,4.38-24.55,5.54-6.9,.96-13.88,1.36-20.82,.58-6.17-.69-12.43-2.42-17.66-5.88-5.77-3.81-9.31-9.85-10.23-16.72-2.03-15.18,5.88-30.07,16.71-40.18,12.11-11.29,28.31-17.05,44.25-20.4,18.38-3.86,37.25-4.95,55.99-4.96,9.53-.01,19.05,.28,28.57,.68,8.61,.35,17.24,.65,25.81,1.55,8.06,.85,16.13,2.34,23.73,5.21,3.66,1.38,7.17,3.14,10.46,5.25,3.06,1.98,6.27,4.38,7.77,7.82Z"/><path class="cls-7" d="M251.48,77.54c13.42,21.23,24.91,45.38,22.61,71.16-1.06,11.88-4.94,23.42-12.33,32.87-7.9,10.11-19.2,17.28-30.16,23.65-8.99,5.22-18.51,9.64-28.58,12.07-2.92,.71-5.89,1.25-8.9,1.59-11.97,1.37-23.98-.28-35.79-2.43-2.21-.4-4.4-.82-6.59-1.24-10.93-2.1-21.96-4.39-32.07-9.22-4.77-2.27-9.28-5.19-13.09-8.87-4.27-4.11-7.43-9.13-9.53-14.66-2.26-5.95-3.18-12.35-3.56-18.66-.4-6.72-.24-13.48,.23-20.19,.98-14.18,3.59-28.24,7.78-41.82,.41-1.32,1.53-1.83,2.6-1.74,1.42,.13,2.76,1.31,2.22,3.07-.98,3.19-1.89,6.4-2.7,9.64-3.3,13.21-5.09,26.76-5.31,40.38-.19,11.76,.33,24.51,6.98,34.67,5.54,8.46,14.74,13.54,24.08,16.77,10.87,3.75,22.42,5.73,33.72,7.65,13.16,2.22,26.7,3.35,39.77,.01,12.29-3.15,23.52-9.4,34.14-16.18,10.07-6.44,19.67-13.92,25.46-24.6,5.28-9.72,7.23-20.94,6.88-31.92-.81-25.02-14.03-47.39-27.5-67.68-.74-1.11-.43-2.19,.3-2.89,.98-.18,1.95-.37,2.92-.58,.41,.18,.79,.48,1.09,.94,1.81,2.72,3.59,5.45,5.33,8.21Z"/><path class="cls-6" d="M269.34,139.54c.35,10.98-1.6,22.2-6.88,31.92-5.79,10.68-15.39,18.16-25.46,24.6-10.62,6.78-21.85,13.03-34.14,16.18-13.07,3.34-26.61,2.21-39.77-.01-11.3-1.92-22.85-3.9-33.72-7.65-9.34-3.23-18.54-8.31-24.08-16.77-6.65-10.16-7.17-22.91-6.98-34.67,.22-13.62,2.01-27.17,5.31-40.38,.81-3.24,1.72-6.45,2.7-9.64,.54-1.76-.8-2.94-2.22-3.07l.22-1.7c11.28,1.43,23.11-.31,33.99-2.64,17.25-3.7,33.91-10.4,48.93-19.65,3.44-2.12,11.76-8.78,15.64-11.72l.62,.26c-.29,.29-.51,.65-.63,1.09-.34,1.22,.42,2.81,1.75,3.07,12.36,2.42,25.14,2.47,37.52,.21-.73,.7-1.04,1.78-.3,2.89,13.47,20.29,26.69,42.66,27.5,67.68Z"/><path class="cls-7" d="M250.05,286.41c1.25,.74,1.98,2.57,.7,3.99-5.16,5.73-9.71,11.95-13.64,18.59-6.75,11.37-11.56,23.71-15.71,36.23-4.02,12.1-7.51,24.36-11.57,36.45l-3.42-.15-1.6-.54c.82-2.44,1.62-4.89,2.4-7.34,1.37-4.26,2.69-8.53,4.01-12.81,.06-.17,.11-.34,.16-.51,1.94-6.33,3.91-12.66,6.05-18.92,2.25-6.63,4.7-13.2,7.53-19.61,5.61-12.72,12.93-24.58,22.26-34.93,.87-.97,1.97-.96,2.83-.45Z"/><path class="cls-7" d="M242.14,68.97c.75-.7,1.92-1.01,2.92-.58-.97,.21-1.94,.4-2.92,.58Z"/><path class="cls-4" d="M208.73,386.62c5.78,.26,11.55,.52,17.33,.77-19.69,.25-39.37,.8-59.04,1.64-13.06,.55-26.11,1.24-39.16,2.05-1.87-3.07-3.71-7.11-1.18-8.8,4.27-2.86,9.77-2.91,14.72-3.29,12.31-.95,29.44-1.07,41.75-2.01,6.94-.54,13.88-1.07,20.82-1.6,1.18-.09,2.21-.85,2.45-1.99l.79,.25c-.78,2.45-1.58,4.9-2.4,7.34l-.81,2.37c-.55,1.61,.89,3.1,2.41,3.17,.77,.03,1.55,.07,2.32,.1Z"/><path class="cls-7" d="M223.74,219.13c.33,.56,.45,1.22,.2,1.83-2.51,6.16-8.11,14.43-13.96,17.46-5.47,2.84-11.5,4.44-17.58,5.33-7.01,1.03-14.1,1.15-21.13,.24-7.01-.9-14.08-2.6-20.5-5.61-5.89-2.76-12.18-9.63-11.87-16.59,.04-.8,.38-1.41,.86-1.81,1.46-1.2,4.24-.6,4.14,1.81-.17,3.87,2.37,7.22,5.58,9.71,2.23,1.73,4.78,3.04,6.96,3.83,11.87,4.29,24.91,5.45,37.33,3.15,4.57-.84,9.86-3.13,14.52-6.38,4.77-3.32,8.86-7.65,10.83-12.47,.51-1.25,1.64-2.13,3.08-1.74,.61,.17,1.19,.65,1.54,1.24Z"/><path class="cls-6" d="M216.01,340.92l1.42,.48c-2.14,6.26-4.11,12.59-6.05,18.92-.05,.17-.1,.34-.16,.51l-1.36-.42c.35-1.42-.42-3.19-2.33-3.2-11.51-.03-46.31-.51-57.58,2.1-5.54,1.28-10.85,3.29-15.9,5.91-4.97,2.58-9.67,5.63-14.5,8.45-9.54,5.56-19.82,9.48-30.71,11.42-5.3,.95-10.7,1.4-16.09,1.38-5.17-.02-10.6-.24-15.63-1.51-2.07-.53-4.32-1.34-5.59-3.17-1.65-2.37-1.57-6.11-1.81-8.88-.61-7.01,.29-16.32,.94-23.33,.12-1.34-1.24-2.5-2.5-2.5l.02-.53c2.55,.08,5.1,0,7.55-.04,10-.18,20-.65,29.98-1.41,1.69-.12,3.39-.26,5.08-.41,.39-.03,.78-.06,1.17-.1-8.99,2.68-17.8,6.62-24.51,13.35-2.28,2.28,1.26,5.82,3.53,3.54,5.92-5.94,13.65-9.42,21.57-11.84,8.89-2.72,18.12-4.53,27.28-6.08,19.69-3.33,39.73-4.62,59.68-3.94,11.19,.38,22.35,1.39,33.42,3.04,1.33,.2,2.69-.33,3.08-1.74Z"/><path class="cls-7" d="M214.26,337.84c1.34,.2,2.07,1.9,1.75,3.08-.39,1.41-1.75,1.94-3.08,1.74-11.07-1.65-22.23-2.66-33.42-3.04-19.95-.68-39.99,.61-59.68,3.94-9.16,1.55-18.39,3.36-27.28,6.08-7.92,2.42-15.65,5.9-21.57,11.84-2.27,2.28-5.81-1.26-3.53-3.54,6.71-6.73,15.52-10.67,24.51-13.35,.37-.03,.73-.06,1.1-.09,.66-.07,1.24-.3,1.67-.69,8.96-2.47,18.15-4.21,27.31-5.65,10.16-1.6,20.4-2.69,30.66-3.26,20.56-1.13,41.2-.1,61.56,2.94Z"/><path class="cls-1" d="M209.86,360.41l1.36,.42c-1.32,4.28-2.64,8.55-4.01,12.81l-.79-.25c.03-.16,.05-.33,.05-.51,0-1.27-1.15-2.61-2.5-2.5-13.39,1.03-26.77,2.05-40.16,3.08-6.61,.51-17.27,.59-23.88,1.11-5.12,.39-11.17,.57-15.66,3.35l-1.81-.5c5.87-3.74,12.95-8.36,22.99-11.67,12.53-4.12,49.03-3.58,62.08-3.54,1.31,.01,2.08-.82,2.33-1.8Z"/><path class="cls-7" d="M207.53,357.21c1.91,.01,2.68,1.78,2.33,3.2-.25,.98-1.02,1.81-2.33,1.8-13.05-.04-49.55-.58-62.08,3.54-10.04,3.31-17.12,7.93-22.99,11.67-2.67,1.71-5.09,3.23-7.42,4.36-10.39,5.06-21.61,8.16-33.12,9.26-5.66,.55-11.37,.57-17.04,.07-4.94-.44-10.74-.83-14.88-3.89-5.05-3.74-5.04-10.54-5.44-16.26-.44-6.37,.51-15.02,1.1-21.38,.12-1.35,1.04-2.5,2.5-2.5,1.26,0,2.62,1.16,2.5,2.5-.65,7.01-1.55,16.32-.94,23.33,.24,2.77,.16,6.51,1.81,8.88,1.27,1.83,3.52,2.64,5.59,3.17,5.03,1.27,10.46,1.49,15.63,1.51,5.39,.02,10.79-.43,16.09-1.38,10.89-1.94,21.17-5.86,30.71-11.42,4.83-2.82,9.53-5.87,14.5-8.45,5.05-2.62,10.36-4.63,15.9-5.91,11.27-2.61,46.07-2.13,57.58-2.1Z"/><path class="cls-7" d="M209.83,381.67c-.33,1.01-.67,2.01-1.01,3.01-.8-1.05-1.61-2.11-2.41-3.16l3.42,.15Z"/><path class="cls-7" d="M206.41,381.52c.8,1.05,1.61,2.11,2.41,3.16l-.09,1.94c-.77-.03-1.55-.07-2.32-.1-1.52-.07-2.96-1.56-2.41-3.17l.81-2.37,1.6,.54Z"/><path class="cls-7" d="M206.47,223.98s0,.03,.01,.04c.03,.19,.06,.37,.09,.55,.04,.2,.09,.4,.14,.59,.04,.15,.09,.55,.21,.65-.05-.12-.09-.2-.1-.25,.02,.03,.04,.07,.06,.12,.05,.08,.09,.17,.14,.25,.08,.15,.16,.3,.25,.44,.18,.34,.38,.64,.57,.96-.03-.04-.06-.08-.1-.12,.08,.11,.14,.19,.18,.23-.02-.02-.04-.05-.07-.1,.04,.04,.07,.07,.1,.11,.15,.17,.32,.32,.49,.47,1.05,.92,.86,2.6,0,3.54-.12,.12-.24,.23-.37,.32-.96,.67-2.3,.43-3.17-.32-.8-.69-1.41-1.59-1.92-2.5-.51-.92-.97-1.86-1.19-2.89-.43-2.01-.57-4.15-.47-6.2,.06-1.15,.74-2.04,1.75-2.37,.24-.07,.49-.12,.75-.13,1.3-.06,2.57,1.19,2.5,2.5-.04,.88-.03,1.77,.02,2.65,.03,.45,.07,.9,.12,1.34,0,.04,.01,.08,.01,.12Z"/><path class="cls-6" d="M208.07,231.78l.22,.32c-4.66,3.25-9.95,5.54-14.52,6.38-12.42,2.3-25.46,1.14-37.33-3.15-2.18-.79-4.73-2.1-6.96-3.83l.12-.16c.6,.49,1.39,.73,2.16,.44,2.23-.84,4.11-2.57,5.59-4.42,.92-1.15,1.61-2.29,2.16-3.66,.59-1.45,.85-2.98,.98-4.53,.11-1.2-1.03-2.35-2.2-2.49l.04-.23c11.81,2.15,23.82,3.8,35.79,2.43,3.01-.34,5.98-.88,8.9-1.59l.05,.21c-1.01,.33-1.69,1.22-1.75,2.37-.1,2.05,.04,4.19,.47,6.2,.22,1.03,.68,1.97,1.19,2.89,.51,.91,1.12,1.81,1.92,2.5,.87,.75,2.21,.99,3.17,.32Z"/><path class="cls-7" d="M207.85,227.34s.05,.08,.07,.1c-.04-.04-.1-.12-.18-.23,.04,.04,.07,.08,.1,.12,.01,0,.01,.01,.01,.01Z"/><path class="cls-7" d="M150.5,226.94s-.04,.01-.07,.02c-.06,.02-.12,.05-.18,.07l.24-.12c.18-.1,.36-.22,.53-.33,.04-.03,.07-.06,.11-.07h0s.16-.1,.22-.15c-.01,0-.03,.01-.06,.03s-.05,.04-.08,.05c.18-.13,.34-.27,.51-.42,.71-.63,1.37-1.31,1.96-2.04,.02-.02,.04-.03,.05-.05h0s.02-.03,.03-.04,.02-.03,.04-.04c.01-.02,.02-.04,.03-.05s.02,0,.02-.02c0,0,.01-.01,.01-.02,.11-.15,.2-.3,.3-.45,.15-.23,.28-.47,.41-.72,.05-.11,.1-.2,.16-.31-.1,.27,.05-.07,.08-.15-.02,0-.03,.03-.04,.06,.2-.56,.38-1.12,.51-1.71,.07-.29,.12-.57,.17-.86v.07c.02-.07,.06-.39,0-.17,.01-.12,.02-.23,.03-.35,.12-1.39,1.05-2.43,2.5-2.5,.1,0,.2,0,.3,0,1.17,.14,2.31,1.29,2.2,2.49-.13,1.55-.39,3.08-.98,4.53-.55,1.37-1.24,2.51-2.16,3.66-1.48,1.85-3.36,3.58-5.59,4.42-.77,.29-1.56,.05-2.16-.44-.43-.34-.76-.81-.91-1.3-.2-.61-.06-1.39,.25-1.93,.31-.53,.76-.84,1.29-1.07-.03,0-.05,.03-.06,.04,.07-.02,.26-.1,.33-.14Z"/><path class="cls-7" d="M155.46,219.52c.05-.22,.01,.1,0,.17v-.1s0-.04,0-.05v-.02Z"/><path class="cls-7" d="M154.77,222.19s.02-.05,.04-.06c-.03,.08-.18,.42-.08,.15h0s.01-.03,.02-.04c.01-.02,.01-.04,.02-.05Z"/><path class="cls-7" d="M153.85,223.78s-.01,.01-.02,.02c.01,0,.01,0,.02-.02Z"/><polygon class="cls-7" points="153.73 223.92 153.73 223.93 153.72 223.93 153.73 223.92"/><path class="cls-7" d="M153.68,223.98s-.03,.03,0,0h0Z"/><path class="cls-7" d="M151.29,226.39s.05-.03,.06-.03c-.06,.05-.18,.13-.22,.16h0s.02-.03,.04-.04c.01-.02,.03-.03,.04-.04,.03-.01,.05-.03,.08-.05Z"/><path class="cls-7" d="M150.43,226.96s.05-.02,.07-.02c-.07,.04-.26,.12-.33,.14,.01-.01,.03-.03,.06-.04,.01,0,.01-.01,.02-.01,.06-.02,.12-.05,.18-.07Z"/><path class="cls-7" d="M137.79,215.52c1.35,.13,2.5,1.04,2.5,2.5,0,.67-.33,1.38-.85,1.88-.44,.42-1.03,.68-1.65,.62-2.33-.23-4.66-.43-6.99-.59-18.76-1.29-37.69-.37-56.22,2.86-7.75,1.35-15.72,2.89-22.93,6.14-6.96,3.14-12.7,7.83-16.29,14.65-3.93,7.46-5.43,16.18-6.73,24.43-1.44,9.1-2.12,18.34-2.1,27.56,.02,9.24,.71,18.51,2.22,27.63,1.12,6.76,3.18,14.39,10.35,16.94,3.56,1.26,7.36,1.43,11.1,1.43,4.71,.01,9.43-.13,14.14-.29,8.78-.3,17.55-.83,26.3-1.57-.02,.76-.05,1.53-.08,2.29l.23,2.69c-1.69,.15-3.39,.29-5.08,.41-9.98,.76-19.98,1.23-29.98,1.41-2.45,.04-5,.12-7.55,.04-6.01-.16-12-1.12-16.65-5.18-6.32-5.52-7.4-14.76-8.44-22.57-1.27-9.61-1.77-19.31-1.48-28.99,.3-9.83,1.4-19.64,3.28-29.29,1.62-8.37,3.83-17.07,9.01-24.03,10.31-13.85,29.08-17.07,45.08-19.45,19.47-2.89,39.22-3.44,58.81-1.52Z"/><path class="cls-7" d="M128.7,392.4c-.72-.41-1.44-.82-2.16-1.24,.44-.03,.88-.05,1.32-.08,.28,.46,.57,.91,.84,1.32Z"/><path class="cls-7" d="M94.72,292.17c1.18,15.77,1.48,31.61,.93,47.42l-2.59-.09c-.81,.07-1.61,.14-2.42,.21,.15-4.01,.24-8.01,.27-12.03,.11-14.34-.51-28.68-1.82-42.96,.42,.14,.89,.16,1.38,.03,1.22-.33,2.21-1.8,1.74-3.07-.3-.85-.19-1.4,.47-2l-4.26-1.77c.24,2.27,.47,4.54,.67,6.81-.78-.25-1.4-.89-1.7-1.71-.87-2.4-.11-5.17,1.76-6.87,1.7-1.55,4.04-.37,4.27,1.77,.51,4.74,.94,9.5,1.3,14.26Z"/><path class="cls-7" d="M95.65,339.59c-.03,.8-.06,1.61-.09,2.41-.03,.77-.34,1.39-.83,1.81-.45,.12-.91,.24-1.36,.37-.47,.13-.94,.27-1.41,.41-.39,.04-.78,.07-1.17,.1l-.23-2.69,2.5-2.5,2.59,.09Z"/><path class="cls-7" d="M93.37,344.18c.45-.13,.91-.25,1.36-.37-.43,.39-1.01,.62-1.67,.69-.37,.03-.73,.06-1.1,.09,.47-.14,.94-.28,1.41-.41Z"/><path class="cls-7" d="M93.06,339.5l-2.5,2.5c.03-.76,.06-1.53,.08-2.29,.81-.07,1.61-.14,2.42-.21Z"/><path class="cls-7" d="M88.42,277.91l4.26,1.77c-.66,.6-.77,1.15-.47,2,.47,1.27-.52,2.74-1.74,3.07-.49,.13-.96,.11-1.38-.03-.2-2.27-.43-4.54-.67-6.81Z"/></g></svg>